<svg xmlns="http://www.w3.org/2000/svg" width="640" height="380" viewBox="0 0 640 380" font-family="sans-serif"><rect width="640" height="380" fill="#fff"/><text x="10" y="18" font-size="13" font-weight="bold">feature_row: weekly_growth_cm distribution (dev, same-cycle only)</text><text x="10" y="372" font-size="10" fill="#a00">SYNTHETIC DATA - Phase 5 EDA on Phase 4 output (reports/eda.md)</text><line x1="55" y1="335" x2="620" y2="335" stroke="#333"/><line x1="55" y1="30" x2="55" y2="335" stroke="#333"/><line x1="55.0" y1="335" x2="55.0" y2="339" stroke="#333"/><text x="55.0" y="351" font-size="9" text-anchor="middle">0</text><line x1="78.54166666666667" y1="335" x2="78.54166666666667" y2="339" stroke="#333"/><text x="78.54166666666667" y="351" font-size="9" text-anchor="middle">1</text><line x1="102.08333333333334" y1="335" x2="102.08333333333334" y2="339" stroke="#333"/><text x="102.08333333333334" y="351" font-size="9" text-anchor="middle">2</text><line x1="125.625" y1="335" x2="125.625" y2="339" stroke="#333"/><text x="125.625" y="351" font-size="9" text-anchor="middle">3</text><line x1="149.16666666666669" y1="335" x2="149.16666666666669" y2="339" stroke="#333"/><text x="149.16666666666669" y="351" font-size="9" text-anchor="middle">4</text><line x1="172.70833333333331" y1="335" x2="172.70833333333331" y2="339" stroke="#333"/><text x="172.70833333333331" y="351" font-size="9" text-anchor="middle">5</text><line x1="196.25" y1="335" x2="196.25" y2="339" stroke="#333"/><text x="196.25" y="351" font-size="9" text-anchor="middle">6</text><line x1="219.79166666666666" y1="335" x2="219.79166666666666" y2="339" stroke="#333"/><text x="219.79166666666666" y="351" font-size="9" text-anchor="middle">7</text><line x1="243.33333333333334" y1="335" x2="243.33333333333334" y2="339" stroke="#333"/><text x="243.33333333333334" y="351" font-size="9" text-anchor="middle">8</text><line x1="266.875" y1="335" x2="266.875" y2="339" stroke="#333"/><text x="266.875" y="351" font-size="9" text-anchor="middle">9</text><line x1="290.41666666666663" y1="335" x2="290.41666666666663" y2="339" stroke="#333"/><text x="290.41666666666663" y="351" font-size="9" text-anchor="middle">10</text><line x1="313.9583333333333" y1="335" x2="313.9583333333333" y2="339" stroke="#333"/><text x="313.9583333333333" y="351" font-size="9" text-anchor="middle">11</text><line x1="337.5" y1="335" x2="337.5" y2="339" stroke="#333"/><text x="337.5" y="351" font-size="9" text-anchor="middle">12</text><line x1="361.0416666666667" y1="335" x2="361.0416666666667" y2="339" stroke="#333"/><text x="361.0416666666667" y="351" font-size="9" text-anchor="middle">13</text><line x1="384.5833333333333" y1="335" x2="384.5833333333333" y2="339" stroke="#333"/><text x="384.5833333333333" y="351" font-size="9" text-anchor="middle">14</text><line x1="408.125" y1="335" x2="408.125" y2="339" stroke="#333"/><text x="408.125" y="351" font-size="9" text-anchor="middle">15</text><line x1="431.6666666666667" y1="335" x2="431.6666666666667" y2="339" stroke="#333"/><text x="431.6666666666667" y="351" font-size="9" text-anchor="middle">16</text><line x1="455.2083333333333" y1="335" x2="455.2083333333333" y2="339" stroke="#333"/><text x="455.2083333333333" y="351" font-size="9" text-anchor="middle">17</text><line x1="478.75" y1="335" x2="478.75" y2="339" stroke="#333"/><text x="478.75" y="351" font-size="9" text-anchor="middle">18</text><line x1="502.2916666666667" y1="335" x2="502.2916666666667" y2="339" stroke="#333"/><text x="502.2916666666667" y="351" font-size="9" text-anchor="middle">19</text><line x1="525.8333333333333" y1="335" x2="525.8333333333333" y2="339" stroke="#333"/><text x="525.8333333333333" y="351" font-size="9" text-anchor="middle">20</text><line x1="549.375" y1="335" x2="549.375" y2="339" stroke="#333"/><text x="549.375" y="351" font-size="9" text-anchor="middle">21</text><line x1="572.9166666666666" y1="335" x2="572.9166666666666" y2="339" stroke="#333"/><text x="572.9166666666666" y="351" font-size="9" text-anchor="middle">22</text><line x1="596.4583333333334" y1="335" x2="596.4583333333334" y2="339" stroke="#333"/><text x="596.4583333333334" y="351" font-size="9" text-anchor="middle">23</text><line x1="620.0" y1="335" x2="620.0" y2="339" stroke="#333"/><text x="620.0" y="351" font-size="9" text-anchor="middle">24</text><line x1="51" y1="335.0" x2="55" y2="335.0" stroke="#333"/><text x="49" y="338.0" font-size="9" text-anchor="end">0</text><line x1="51" y1="274.0" x2="55" y2="274.0" stroke="#333"/><text x="49" y="277.0" font-size="9" text-anchor="end">637.6</text><line x1="51" y1="213.0" x2="55" y2="213.0" stroke="#333"/><text x="49" y="216.0" font-size="9" text-anchor="end">1275</text><line x1="51" y1="152.0" x2="55" y2="152.0" stroke="#333"/><text x="49" y="155.0" font-size="9" text-anchor="end">1913</text><line x1="51" y1="91.0" x2="55" y2="91.0" stroke="#333"/><text x="49" y="94.0" font-size="9" text-anchor="end">2550</text><line x1="51" y1="30.0" x2="55" y2="30.0" stroke="#333"/><text x="49" y="33.0" font-size="9" text-anchor="end">3188</text><text x="337.5" y="365" font-size="10" text-anchor="middle"></text><text x="14" y="182.5" font-size="10" text-anchor="middle" transform="rotate(-90 14 182.5)">count</text><rect x="57.8" y="302.5" width="17.9" height="32.5" fill="#16c"/><text x="66.1" y="351" font-size="9" text-anchor="middle">-10</text><rect x="81.4" y="274.0" width="17.9" height="61.0" fill="#16c"/><text x="89.6" y="351" font-size="9" text-anchor="middle"></text><rect x="104.9" y="233.5" width="17.9" height="101.5" fill="#16c"/><text x="113.1" y="351" font-size="9" text-anchor="middle"></text><rect x="128.4" y="181.5" width="17.9" height="153.5" fill="#16c"/><text x="136.7" y="351" font-size="9" text-anchor="middle"></text><rect x="152.0" y="129.6" width="17.9" height="205.4" fill="#16c"/><text x="160.2" y="351" font-size="9" text-anchor="middle">-1</text><rect x="175.5" y="74.9" width="17.9" height="260.1" fill="#16c"/><text x="183.8" y="351" font-size="9" text-anchor="middle"></text><rect x="199.1" y="57.7" width="17.9" height="277.3" fill="#16c"/><text x="207.3" y="351" font-size="9" text-anchor="middle"></text><rect x="222.6" y="57.7" width="17.9" height="277.3" fill="#16c"/><text x="230.9" y="351" font-size="9" text-anchor="middle"></text><rect x="246.2" y="84.6" width="17.9" height="250.4" fill="#16c"/><text x="254.4" y="351" font-size="9" text-anchor="middle">8</text><rect x="269.7" y="114.4" width="17.9" height="220.6" fill="#16c"/><text x="277.9" y="351" font-size="9" text-anchor="middle"></text><rect x="293.2" y="159.7" width="17.9" height="175.3" fill="#16c"/><text x="301.5" y="351" font-size="9" text-anchor="middle"></text><rect x="316.8" y="197.0" width="17.9" height="138.0" fill="#16c"/><text x="325.0" y="351" font-size="9" text-anchor="middle"></text><rect x="340.3" y="224.2" width="17.9" height="110.8" fill="#16c"/><text x="348.6" y="351" font-size="9" text-anchor="middle">17</text><rect x="363.9" y="251.0" width="17.9" height="84.0" fill="#16c"/><text x="372.1" y="351" font-size="9" text-anchor="middle"></text><rect x="387.4" y="269.4" width="17.9" height="65.6" fill="#16c"/><text x="395.6" y="351" font-size="9" text-anchor="middle"></text><rect x="410.9" y="290.9" width="17.9" height="44.1" fill="#16c"/><text x="419.2" y="351" font-size="9" text-anchor="middle"></text><rect x="434.5" y="301.3" width="17.9" height="33.7" fill="#16c"/><text x="442.7" y="351" font-size="9" text-anchor="middle">25</text><rect x="458.0" y="307.1" width="17.9" height="27.9" fill="#16c"/><text x="466.3" y="351" font-size="9" text-anchor="middle"></text><rect x="481.6" y="317.1" width="17.9" height="17.9" fill="#16c"/><text x="489.8" y="351" font-size="9" text-anchor="middle"></text><rect x="505.1" y="321.1" width="17.9" height="13.9" fill="#16c"/><text x="513.4" y="351" font-size="9" text-anchor="middle"></text><rect x="528.7" y="322.8" width="17.9" height="12.2" fill="#16c"/><text x="536.9" y="351" font-size="9" text-anchor="middle">34</text><rect x="552.2" y="324.5" width="17.9" height="10.5" fill="#16c"/><text x="560.4" y="351" font-size="9" text-anchor="middle"></text><rect x="575.7" y="328.1" width="17.9" height="6.9" fill="#16c"/><text x="584.0" y="351" font-size="9" text-anchor="middle"></text><rect x="599.3" y="329.2" width="17.9" height="5.8" fill="#16c"/><text x="607.5" y="351" font-size="9" text-anchor="middle"></text><text x="320.0" y="190.0" font-size="60.800000000000004" fill="#d33" fill-opacity="0.13" text-anchor="middle" transform="rotate(-22 320.0 190.0)" font-family="sans-serif" font-weight="bold">DADOS SINTETICOS &#183; SYNTHETIC</text></svg>