<svg xmlns="http://www.w3.org/2000/svg" width="640" height="380" viewBox="0 0 640 380" font-family="sans-serif"><rect width="640" height="380" fill="#fff"/><text x="10" y="18" font-size="13" font-weight="bold">feature_row: mean weekly growth by month (dev)</text><text x="10" y="372" font-size="10" fill="#a00">SYNTHETIC DATA - Phase 5 EDA on Phase 4 output (reports/eda.md)</text><line x1="55" y1="335" x2="620" y2="335" stroke="#333"/><line x1="55" y1="30" x2="55" y2="335" stroke="#333"/><line x1="55.0" y1="335" x2="55.0" y2="339" stroke="#333"/><text x="55.0" y="351" font-size="9" text-anchor="middle">0</text><line x1="102.08333333333334" y1="335" x2="102.08333333333334" y2="339" stroke="#333"/><text x="102.08333333333334" y="351" font-size="9" text-anchor="middle">1</text><line x1="149.16666666666669" y1="335" x2="149.16666666666669" y2="339" stroke="#333"/><text x="149.16666666666669" y="351" font-size="9" text-anchor="middle">2</text><line x1="196.25" y1="335" x2="196.25" y2="339" stroke="#333"/><text x="196.25" y="351" font-size="9" text-anchor="middle">3</text><line x1="243.33333333333334" y1="335" x2="243.33333333333334" y2="339" stroke="#333"/><text x="243.33333333333334" y="351" font-size="9" text-anchor="middle">4</text><line x1="290.41666666666663" y1="335" x2="290.41666666666663" y2="339" stroke="#333"/><text x="290.41666666666663" y="351" font-size="9" text-anchor="middle">5</text><line x1="337.5" y1="335" x2="337.5" y2="339" stroke="#333"/><text x="337.5" y="351" font-size="9" text-anchor="middle">6</text><line x1="384.5833333333333" y1="335" x2="384.5833333333333" y2="339" stroke="#333"/><text x="384.5833333333333" y="351" font-size="9" text-anchor="middle">7</text><line x1="431.6666666666667" y1="335" x2="431.6666666666667" y2="339" stroke="#333"/><text x="431.6666666666667" y="351" font-size="9" text-anchor="middle">8</text><line x1="478.75" y1="335" x2="478.75" y2="339" stroke="#333"/><text x="478.75" y="351" font-size="9" text-anchor="middle">9</text><line x1="525.8333333333333" y1="335" x2="525.8333333333333" y2="339" stroke="#333"/><text x="525.8333333333333" y="351" font-size="9" text-anchor="middle">10</text><line x1="572.9166666666666" y1="335" x2="572.9166666666666" y2="339" stroke="#333"/><text x="572.9166666666666" y="351" font-size="9" text-anchor="middle">11</text><line x1="620.0" y1="335" x2="620.0" y2="339" stroke="#333"/><text x="620.0" y="351" font-size="9" text-anchor="middle">12</text><line x1="51" y1="335.0" x2="55" y2="335.0" stroke="#333"/><text x="49" y="338.0" font-size="9" text-anchor="end">0</text><line x1="51" y1="274.0" x2="55" y2="274.0" stroke="#333"/><text x="49" y="277.0" font-size="9" text-anchor="end">3.283</text><line x1="51" y1="213.0" x2="55" y2="213.0" stroke="#333"/><text x="49" y="216.0" font-size="9" text-anchor="end">6.566</text><line x1="51" y1="152.0" x2="55" y2="152.0" stroke="#333"/><text x="49" y="155.0" font-size="9" text-anchor="end">9.849</text><line x1="51" y1="91.0" x2="55" y2="91.0" stroke="#333"/><text x="49" y="94.0" font-size="9" text-anchor="end">13.13</text><line x1="51" y1="30.0" x2="55" y2="30.0" stroke="#333"/><text x="49" y="33.0" font-size="9" text-anchor="end">16.41</text><text x="337.5" y="365" font-size="10" text-anchor="middle"></text><text x="14" y="182.5" font-size="10" text-anchor="middle" transform="rotate(-90 14 182.5)">mean weekly_growth_cm</text><rect x="60.6" y="113.6" width="35.8" height="221.4" fill="#16c"/><text x="77.1" y="351" font-size="9" text-anchor="middle">J</text><rect x="107.7" y="57.7" width="35.8" height="277.3" fill="#16c"/><text x="124.2" y="351" font-size="9" text-anchor="middle">F</text><rect x="154.8" y="90.5" width="35.8" height="244.5" fill="#16c"/><text x="171.3" y="351" font-size="9" text-anchor="middle">M</text><rect x="201.9" y="149.2" width="35.8" height="185.8" fill="#16c"/><text x="218.4" y="351" font-size="9" text-anchor="middle">A</text><rect x="249.0" y="212.1" width="35.8" height="122.9" fill="#16c"/><text x="265.5" y="351" font-size="9" text-anchor="middle">M</text><rect x="296.1" y="282.8" width="35.8" height="52.2" fill="#16c"/><text x="312.5" y="351" font-size="9" text-anchor="middle">J</text><rect x="343.1" y="288.9" width="35.8" height="46.1" fill="#16c"/><text x="359.6" y="351" font-size="9" text-anchor="middle">J</text><rect x="390.2" y="225.7" width="35.8" height="109.3" fill="#16c"/><text x="406.7" y="351" font-size="9" text-anchor="middle">A</text><rect x="437.3" y="169.4" width="35.8" height="165.6" fill="#16c"/><text x="453.8" y="351" font-size="9" text-anchor="middle">S</text><rect x="484.4" y="177.3" width="35.8" height="157.7" fill="#16c"/><text x="500.9" y="351" font-size="9" text-anchor="middle">O</text><rect x="531.5" y="151.8" width="35.8" height="183.2" fill="#16c"/><text x="548.0" y="351" font-size="9" text-anchor="middle">N</text><rect x="578.6" y="105.1" width="35.8" height="229.9" fill="#16c"/><text x="595.0" y="351" font-size="9" text-anchor="middle">D</text><text x="320.0" y="190.0" font-size="60.800000000000004" fill="#d33" fill-opacity="0.13" text-anchor="middle" transform="rotate(-22 320.0 190.0)" font-family="sans-serif" font-weight="bold">DADOS SINTETICOS &#183; SYNTHETIC</text></svg>